<svg width="25" height="37" viewBox="0 0 25 37" fill="none" xmlns="http://www.w3.org/2000/svg">
<path fill-rule="evenodd" clip-rule="evenodd" d="M8.75014 20C8.75014 19.3096 9.30978 18.75 10.0001 18.75H12.5H14.3751C16.1204 18.75 17.6269 19.7719 18.3291 21.25H15.6807H15.6778H15H14.3777C14.3768 21.25 14.3759 21.25 14.375 21.25H9.82549C9.23152 21.25 8.75001 20.7685 8.75001 20.1745C8.75001 20.1469 8.74895 20.1192 8.74682 20.0917C8.74902 20.0614 8.75014 20.0309 8.75014 20ZM24.9999 22.4434V21.25H24.9227C24.3875 16.958 21.1324 13.5106 16.9366 12.6874C16.5304 12.5637 16.1063 12.5 15.6778 12.5L15.0001 12.5L12.5 12.5C9.04824 12.5 6.25002 9.70178 6.25002 6.25L6.25002 3.12499C6.25002 1.39911 4.85091 0 3.12503 0C1.39914 0 3.56346e-05 1.39911 3.55591e-05 3.12499L3.53133e-05 8.75H1.43051e-05V11.8655C4.95283e-06 11.8687 2.73334e-07 11.8718 2.73196e-07 11.875L0 18.125C-7.07259e-08 19.743 0.409908 21.2653 1.13153 22.5937C2.71908 25.5161 5.81536 27.5 9.375 27.5C9.37501 27.5 9.37501 27.5 9.37502 27.5H10.3784H12.5H12.5H14.3749C16.7912 27.5 18.75 29.4588 18.75 31.875V33.125C18.75 34.8509 20.1491 36.25 21.8749 36.25C23.6008 36.25 24.9999 34.8509 24.9999 33.125V24.4066C25 24.3961 25.0001 24.3856 25.0001 24.375V22.5C25.0001 22.4811 25 22.4623 24.9999 22.4434Z" fill="#F9A502"/>
</svg>
