<svg width="47" height="47" viewBox="0 0 47 47" fill="none" xmlns="http://www.w3.org/2000/svg">
<circle cx="23.1" cy="23.1" r="23.1" fill="#FFB340"/>
<path d="M27.3995 21.1V11.5L22.5995 6.69995L17.7995 11.5V14.7H8.19946V37.1H36.9995V21.1H27.3995ZM14.5995 33.9H11.3995V30.7H14.5995V33.9ZM14.5995 27.5H11.3995V24.3H14.5995V27.5ZM14.5995 21.1H11.3995V17.9H14.5995V21.1ZM24.1995 33.9H20.9995V30.7H24.1995V33.9ZM24.1995 27.5H20.9995V24.3H24.1995V27.5ZM24.1995 21.1H20.9995V17.9H24.1995V21.1ZM24.1995 14.7H20.9995V11.5H24.1995V14.7ZM33.7995 33.9H30.5995V30.7H33.7995V33.9ZM33.7995 27.5H30.5995V24.3H33.7995V27.5Z" fill="white"/>
</svg>
