<svg width="47" height="47" viewBox="0 0 47 47" fill="none" xmlns="http://www.w3.org/2000/svg">
<circle cx="23.4999" cy="23.8" r="23.1" fill="#FEC164"/>
<path d="M12.032 18.7741C12.032 18.157 12.3169 17.5743 12.8041 17.1954L22.9001 9.34299C23.6223 8.78126 24.6336 8.78126 25.3559 9.34299L35.4519 17.1954C35.939 17.5743 36.224 18.157 36.224 18.7741V32.58C36.224 33.2929 35.9408 33.9766 35.4367 34.4807C34.9326 34.9848 34.2489 35.268 33.536 35.268H14.72C14.0071 35.268 13.3234 34.9848 12.8193 34.4807C12.3152 33.9766 12.032 33.2929 12.032 32.58V18.7741Z" fill="#FEFEFE" stroke="#FAFAFA" stroke-width="2" stroke-linecap="round" stroke-linejoin="round"/>
<path d="M20.1279 35.3002V27.3002H28.1279V35.3002" stroke="#FAFAFA" stroke-width="2" stroke-linecap="round" stroke-linejoin="round"/>
<path fill-rule="evenodd" clip-rule="evenodd" d="M8.18291 16.708V16.7171H8.17383H8.16476V16.7261L8.17383 16.7352V16.7443V16.7534H8.16476V16.7624H8.15568H8.14661L8.13753 16.7715V16.7624H8.12846V16.7534V16.7443H8.13753H8.14661V16.7352V16.7261L8.15568 16.7171V16.7261L8.16476 16.7352V16.7261V16.7171V16.7261L8.15568 16.7171V16.708H8.14661V16.6898H8.15568V16.6808V16.6717V16.6626H8.14661V16.6535L8.13753 16.6445H8.12846V16.6354V16.6263H8.11938H8.12846H8.13753L8.14661 16.6354L8.15568 16.6445L8.16476 16.6535V16.6626V16.6717H8.17383V16.6808V16.6898V16.6989H8.18291V16.708Z" fill="white"/>
<path fill-rule="evenodd" clip-rule="evenodd" d="M8.04667 16.1998V16.1907H8.05575L8.06482 16.1998V16.1907V16.1817V16.1726H8.05575V16.1635V16.1544L8.04667 16.1454H8.05575V16.1363L8.06482 16.1272H8.0739L8.08297 16.1181V16.1091V16.1H8.09205H8.08297V16.0818L8.09205 16.0909H8.10112V16.1L8.1102 16.0818V16.0728L8.11927 16.0818V16.0909L8.1102 16.1091L8.10112 16.1181V16.1272L8.09205 16.1363V16.1454V16.1544V16.1635L8.08297 16.1726V16.1817V16.1907V16.1998L8.0739 16.2089V16.227V16.2361L8.06482 16.2452V16.227H8.05575V16.2452V16.2361H8.04667L8.05575 16.227H8.04667L8.0376 16.218L8.04667 16.2089V16.1998Z" fill="white"/>
<path fill-rule="evenodd" clip-rule="evenodd" d="M7.90162 15.8277H7.89254V15.8186V15.8277L7.88347 15.8368V15.8277L7.87439 15.8459L7.86532 15.8368V15.8459L7.85624 15.8368V15.8277V15.8186V15.8096V15.8186L7.84717 15.8005H7.85624L7.84717 15.7914L7.85624 15.7823L7.84717 15.7733L7.85624 15.7642V15.7733L7.86532 15.7642L7.87439 15.7823H7.88347V15.7914V15.8005V15.8096H7.89254V15.8186H7.90162V15.8277Z" fill="white"/>
<path fill-rule="evenodd" clip-rule="evenodd" d="M8.23727 15.5827V15.5918V15.5827L8.24634 15.5918V15.5827V15.5918H8.25542L8.24634 15.5827H8.25542V15.5736H8.24634L8.23727 15.5645H8.22819V15.5555V15.5464L8.23727 15.5373V15.5464V15.5373V15.5464L8.24634 15.5373V15.5464V15.5373L8.23727 15.5282H8.24634V15.5192H8.23727L8.24634 15.5101H8.25542L8.24634 15.501H8.25542V15.4919V15.4829H8.24634V15.4738H8.23727V15.4829V15.4919H8.22819H8.21912V15.4829H8.21004V15.4738L8.20097 15.4647L8.19189 15.4556H8.20097H8.21004V15.4466H8.21912V15.4375H8.22819L8.23727 15.4284L8.24634 15.4375H8.23727L8.24634 15.4466V15.4556V15.4647L8.25542 15.4738H8.26449L8.25542 15.4647L8.26449 15.4738L8.27357 15.4647V15.4556H8.28264H8.29172V15.4647V15.4738H8.28264V15.4829L8.29172 15.4919L8.28264 15.501L8.27357 15.5101L8.28264 15.5192V15.5282L8.30987 15.5373H8.30079H8.28264L8.26449 15.5464V15.5555L8.25542 15.5645H8.26449L8.25542 15.5736L8.26449 15.5827V15.5918H8.25542L8.26449 15.6008L8.27357 15.6099H8.26449H8.25542H8.24634V15.6008H8.23727H8.22819H8.21912L8.22819 15.5918H8.21912L8.22819 15.5827H8.23727Z" fill="white"/>
</svg>
