<svg width="124" height="123" viewBox="0 0 124 123" fill="none" xmlns="http://www.w3.org/2000/svg">
<path d="M17.7143 17.6181C17.7143 12.9599 19.5806 8.49251 22.9027 5.19869C26.2248 1.90486 30.7304 0.0544128 35.4286 0.0544128C40.1267 0.0544128 44.6324 1.90486 47.9545 5.19869C51.2765 8.49251 53.1429 12.9599 53.1429 17.6181C53.1429 22.2762 51.2765 26.7436 47.9545 30.0374C44.6324 33.3313 40.1267 35.1817 35.4286 35.1817C30.7304 35.1817 26.2248 33.3313 22.9027 30.0374C19.5806 26.7436 17.7143 22.2762 17.7143 17.6181ZM35.4286 8.83624C33.0795 8.83624 30.8267 9.76147 29.1656 11.4084C27.5046 13.0553 26.5714 15.289 26.5714 17.6181C26.5714 19.9472 27.5046 22.1808 29.1656 23.8278C30.8267 25.4747 33.0795 26.3999 35.4286 26.3999C37.7776 26.3999 40.0305 25.4747 41.6915 23.8278C43.3525 22.1808 44.2857 19.9472 44.2857 17.6181C44.2857 15.289 43.3525 13.0553 41.6915 11.4084C40.0305 9.76147 37.7776 8.83624 35.4286 8.83624ZM77.7569 31.5285C75.9012 30.1251 74.3436 28.372 73.1734 26.3699C72.0033 24.3677 71.2437 22.1561 70.9383 19.862C70.6329 17.5679 70.7877 15.2366 71.3938 13.002C72 10.7674 73.0455 8.67361 74.4703 6.84091C75.8952 5.0082 77.6712 3.47272 79.6964 2.32269C81.7216 1.17266 83.956 0.430746 86.2713 0.139589C88.5866 -0.151569 90.9371 0.0137641 93.1878 0.626089C95.4384 1.23841 97.5448 2.28566 99.386 3.70765C103.011 6.58286 105.353 10.7541 105.908 15.324C106.463 19.8938 105.186 24.497 102.353 28.143C99.5192 31.7891 95.3554 34.1866 90.7572 34.8198C86.1591 35.4529 81.4851 34.271 77.7569 31.5285ZM88.5714 8.83624C86.2224 8.83624 83.9695 9.76147 82.3085 11.4084C80.6474 13.0553 79.7143 15.289 79.7143 17.6181C79.7143 19.9472 80.6474 22.1808 82.3085 23.8278C83.9695 25.4747 86.2224 26.3999 88.5714 26.3999C90.9205 26.3999 93.1733 25.4747 94.8344 23.8278C96.4954 22.1808 97.4286 19.9472 97.4286 17.6181C97.4286 15.289 96.4954 13.0553 94.8344 11.4084C93.1733 9.76147 90.9205 8.83624 88.5714 8.83624ZM13.2857 43.9636H36.9343C35.96 46.7123 35.4286 49.6717 35.4286 52.7454H13.2857C12.1112 52.7454 10.9848 53.208 10.1542 54.0314C9.32372 54.8549 8.85714 55.9718 8.85714 57.1363C8.85714 64.311 11.7357 69.6328 16.2794 73.2509C18.3697 74.9195 20.8763 76.2631 23.7106 77.2467C21.6292 79.4402 20.0253 82.0349 18.9986 84.8693C16.0255 83.6852 13.2419 82.0789 10.7349 80.1008C4.07428 74.7878 0 66.9368 0 57.1363C0 53.6427 1.39974 50.2921 3.8913 47.8218C6.38285 45.3514 9.76212 43.9636 13.2857 43.9636ZM46.6594 43.9636C44.3104 47.9999 43.6747 52.7961 44.8922 57.2971C46.1098 61.7981 49.0808 65.6352 53.1517 67.9643C57.2226 70.2934 62.06 70.9236 66.5996 69.7165C71.1392 68.5093 75.0092 65.5635 77.3583 61.5272C79.7073 57.4909 80.343 52.6947 79.1255 48.1937C77.9079 43.6927 74.9369 39.8556 70.866 37.5265C66.7951 35.1974 61.9577 34.5671 57.4181 35.7743C52.8785 36.9815 49.0085 39.9272 46.6594 43.9636ZM60.016 44.1831C61.3137 43.8924 62.6607 43.8945 63.9576 44.1891C65.2544 44.4837 66.4679 45.0634 67.5085 45.8852C68.5492 46.7071 69.3903 47.7503 69.9699 48.9376C70.5495 50.125 70.8527 51.4263 70.8571 52.7454C70.8565 54.3977 70.3856 56.0163 69.4988 57.4152C68.6119 58.8142 67.3449 59.9366 65.8435 60.6537C64.3421 61.3707 62.6671 61.6532 61.0111 61.4687C59.355 61.2842 57.785 60.6402 56.4815 59.6107C55.178 58.5812 54.1939 57.208 53.6422 55.6488C53.0906 54.0896 52.9937 52.4078 53.3629 50.7965C53.732 49.1852 54.5522 47.7099 55.7291 46.54C56.906 45.3701 58.3918 44.5532 60.016 44.1831ZM107.721 73.2509C105.63 74.9195 103.124 76.2631 100.289 77.2467C102.368 79.441 103.968 82.0356 104.993 84.8693C108.004 83.6486 110.794 82.0591 113.265 80.1008C119.926 74.7878 124 66.9368 124 57.1363C124 53.6427 122.6 50.2921 120.109 47.8218C117.617 45.3514 114.238 43.9636 110.714 43.9636H87.0657C88.04 46.7123 88.5714 49.6717 88.5714 52.7454H110.714C111.889 52.7454 113.015 53.208 113.846 54.0314C114.676 54.8549 115.143 55.9718 115.143 57.1363C115.143 64.311 112.264 69.6328 107.721 73.2509ZM84.1429 79.0909C87.6664 79.0909 91.0457 80.4787 93.5373 82.9491C96.0288 85.4194 97.4286 88.77 97.4286 92.2636C97.4286 102.064 93.3631 109.915 86.6937 115.228C80.1306 120.453 71.3266 123 62 123C52.6734 123 43.8694 120.453 37.3063 115.228C30.6457 109.915 26.5714 102.064 26.5714 92.2636C26.5668 90.5324 26.9072 88.8174 27.5732 87.2171C28.2392 85.6169 29.2177 84.1629 30.4523 82.9387C31.6869 81.7146 33.1534 80.7445 34.7674 80.0841C36.3814 79.4238 38.1111 79.0862 39.8571 79.0909H84.1429ZM84.1429 87.8727H39.8571C38.6826 87.8727 37.5562 88.3353 36.7257 89.1588C35.8952 89.9822 35.4286 91.0991 35.4286 92.2636C35.4286 99.4384 38.3071 104.76 42.8509 108.378C47.5097 112.084 54.2057 114.218 62 114.218C69.7943 114.218 76.4903 112.084 81.1491 108.378C85.6929 104.76 88.5714 99.4384 88.5714 92.2636C88.5714 91.0991 88.1048 89.9822 87.2743 89.1588C86.4438 88.3353 85.3174 87.8727 84.1429 87.8727Z" fill="#FFB340"/>
</svg>
