<svg width="78" height="78" viewBox="0 0 78 78" fill="none" xmlns="http://www.w3.org/2000/svg">
<rect x="0.0249023" width="77.95" height="77.95" rx="38.975" fill="#FFB340"/>
<g clip-path="url(#clip0_323_3000)">
<path d="M39.8348 59.8546C45.4019 59.8546 50.741 57.7282 54.6776 53.943C58.6141 50.1579 60.8256 45.0241 60.8256 39.6712C60.8256 34.3182 58.6141 29.1844 54.6776 25.3993C50.741 21.6141 45.4019 19.4877 39.8348 19.4877C34.2677 19.4877 28.9286 21.6141 24.9921 25.3993C21.0555 29.1844 18.844 34.3182 18.844 39.6712C18.844 45.0241 21.0555 50.1579 24.9921 53.943C28.9286 57.7282 34.2677 59.8546 39.8348 59.8546ZM39.8348 29.5794C40.9254 29.5794 41.8027 30.423 41.8027 31.4716V40.3019C41.8027 41.3505 40.9254 42.1941 39.8348 42.1941C38.7443 42.1941 37.8669 41.3505 37.8669 40.3019V31.4716C37.8669 30.423 38.7443 29.5794 39.8348 29.5794ZM37.211 47.24C37.211 46.5708 37.4874 45.9291 37.9795 45.456C38.4715 44.9828 39.1389 44.717 39.8348 44.717C40.5307 44.717 41.1981 44.9828 41.6902 45.456C42.1822 45.9291 42.4587 46.5708 42.4587 47.24C42.4587 47.9091 42.1822 48.5508 41.6902 49.0239C41.1981 49.4971 40.5307 49.7629 39.8348 49.7629C39.1389 49.7629 38.4715 49.4971 37.9795 49.0239C37.4874 48.5508 37.211 47.9091 37.211 47.24Z" fill="#FEFEFE"/>
</g>
<defs>
<clipPath id="clip0_323_3000">
<rect width="41.9816" height="40.367" fill="white" transform="translate(18.844 19.4877)"/>
</clipPath>
</defs>
</svg>
