<svg width="302" height="76" viewBox="0 0 302 76" fill="none" xmlns="http://www.w3.org/2000/svg">
<path d="M22.8512 11.6119C23.024 8.15593 24.2336 5.49481 26.48 3.62857C28.761 1.72777 31.7504 0.777369 35.4483 0.777369C37.9712 0.777369 40.1312 1.22665 41.9283 2.12521C43.7254 2.98921 45.0733 4.18153 45.9718 5.70217C46.905 7.18825 47.3715 8.88169 47.3715 10.7825C47.3715 12.9598 46.8013 14.8087 45.6608 16.3294C44.5549 17.8155 43.2243 18.8177 41.6691 19.3361V19.5435C43.6736 20.1655 45.2288 21.2715 46.3347 22.8612C47.4752 24.451 48.0454 26.49 48.0454 28.9783C48.0454 31.0519 47.5616 32.9009 46.5939 34.5252C45.6608 36.1495 44.2611 37.4283 42.3949 38.3614C40.5632 39.2599 38.3514 39.7092 35.7594 39.7092C31.8541 39.7092 28.6746 38.7243 26.2208 36.7543C23.767 34.7844 22.471 31.8814 22.3328 28.0452H29.383C29.4522 29.7387 30.0224 31.1038 31.0938 32.1406C32.1997 33.1428 33.703 33.6439 35.6038 33.6439C37.3664 33.6439 38.7142 33.1601 39.6474 32.1924C40.615 31.1902 41.0989 29.9115 41.0989 28.3563C41.0989 26.2827 40.4422 24.7966 39.129 23.898C37.8157 22.9995 35.7766 22.5502 33.0118 22.5502H31.5085V16.5886H33.0118C37.9194 16.5886 40.3731 14.947 40.3731 11.6638C40.3731 10.1777 39.9238 9.01993 39.0253 8.19049C38.1613 7.36105 36.8998 6.94633 35.241 6.94633C33.6166 6.94633 32.3552 7.39561 31.4566 8.29417C30.5926 9.15817 30.0915 10.2641 29.9533 11.6119H22.8512ZM77.316 7.15369L63.5266 39.45H56.1653L70.0584 7.98313H52.3291V1.76233H77.316V7.15369Z" fill="#F9A502"/>
<path d="M28.8429 61.2455C28.8429 60.13 29.0713 59.1421 29.5283 58.282C29.9987 57.4218 30.6304 56.7565 31.4233 56.2861C32.2297 55.8023 33.1235 55.5604 34.1046 55.5604C34.8304 55.5604 35.5427 55.7217 36.2416 56.0442C36.9539 56.3533 37.5184 56.77 37.935 57.2941V51.9316H40.2534V66.85H37.935V65.1767C37.5587 65.7143 37.0345 66.1578 36.3625 66.5073C35.704 66.8567 34.9446 67.0314 34.0845 67.0314C33.1168 67.0314 32.2297 66.7895 31.4233 66.3057C30.6304 65.8084 29.9987 65.1229 29.5283 64.2493C29.0713 63.3623 28.8429 62.361 28.8429 61.2455ZM37.935 61.2858C37.935 60.5197 37.7737 59.8545 37.4512 59.29C37.1421 58.7255 36.7321 58.2954 36.2214 57.9997C35.7107 57.7041 35.1597 57.5562 34.5683 57.5562C33.9769 57.5562 33.4259 57.7041 32.9152 57.9997C32.4045 58.282 31.9878 58.7053 31.6653 59.2698C31.3561 59.8209 31.2016 60.4794 31.2016 61.2455C31.2016 62.0116 31.3561 62.6836 31.6653 63.2615C31.9878 63.8394 32.4045 64.2829 32.9152 64.5921C33.4393 64.8877 33.9904 65.0356 34.5683 65.0356C35.1597 65.0356 35.7107 64.8877 36.2214 64.5921C36.7321 64.2964 37.1421 63.8663 37.4512 63.3018C37.7737 62.7239 37.935 62.0519 37.935 61.2858ZM45.3687 55.7418V66.85H43.0705V55.7418H45.3687ZM46.2961 52.7581L41.8407 54.9556V53.2621L46.2961 50.8026V52.7581ZM47.4184 61.2455C47.4184 60.13 47.6469 59.1421 48.1038 58.282C48.5742 57.4218 49.2059 56.7565 49.9989 56.2861C50.8053 55.8023 51.6923 55.5604 52.66 55.5604C53.5336 55.5604 54.293 55.7351 54.9381 56.0845C55.5966 56.4205 56.1208 56.8439 56.5106 57.3546V55.7418H58.829V66.85H56.5106V65.1969C56.1208 65.721 55.5899 66.1578 54.9179 66.5073C54.2459 66.8567 53.4798 67.0314 52.6197 67.0314C51.6654 67.0314 50.7918 66.7895 49.9989 66.3057C49.2059 65.8084 48.5742 65.1229 48.1038 64.2493C47.6469 63.3623 47.4184 62.361 47.4184 61.2455ZM56.5106 61.2858C56.5106 60.5197 56.3493 59.8545 56.0267 59.29C55.7176 58.7255 55.3077 58.2954 54.797 57.9997C54.2862 57.7041 53.7352 57.5562 53.1438 57.5562C52.5525 57.5562 52.0014 57.7041 51.4907 57.9997C50.98 58.282 50.5634 58.7053 50.2408 59.2698C49.9317 59.8209 49.7771 60.4794 49.7771 61.2455C49.7771 62.0116 49.9317 62.6836 50.2408 63.2615C50.5634 63.8394 50.98 64.2829 51.4907 64.5921C52.0149 64.8877 52.5659 65.0356 53.1438 65.0356C53.7352 65.0356 54.2862 64.8877 54.797 64.5921C55.3077 64.2964 55.7176 63.8663 56.0267 63.3018C56.3493 62.7239 56.5106 62.0519 56.5106 61.2858ZM65.678 67.0314C64.8044 67.0314 64.0182 66.8769 63.3193 66.5677C62.6338 66.2452 62.0895 65.8151 61.6863 65.2775C61.2831 64.7265 61.0681 64.1149 61.0412 63.4429H63.4201C63.4604 63.9133 63.6822 64.3098 64.0854 64.6324C64.502 64.9415 65.0194 65.0961 65.6377 65.0961C66.2828 65.0961 66.7801 64.9751 67.1295 64.7332C67.4924 64.4778 67.6738 64.1553 67.6738 63.7655C67.6738 63.3489 67.4722 63.0397 67.069 62.8381C66.6793 62.6365 66.0543 62.4148 65.1942 62.1729C64.3609 61.9444 63.6822 61.7226 63.158 61.5076C62.6338 61.2925 62.1769 60.9633 61.7871 60.5197C61.4108 60.0762 61.2226 59.4916 61.2226 58.7658C61.2226 58.1745 61.3974 57.6369 61.7468 57.153C62.0962 56.6557 62.5935 56.266 63.2386 55.9837C63.8972 55.7015 64.6498 55.5604 65.4966 55.5604C66.7599 55.5604 67.7746 55.8829 68.5407 56.5281C69.3202 57.1597 69.7369 58.0266 69.7906 59.1287H67.4924C67.4521 58.6314 67.2505 58.2349 66.8876 57.9393C66.5247 57.6436 66.0342 57.4957 65.4159 57.4957C64.8111 57.4957 64.3474 57.61 64.0249 57.8385C63.7023 58.0669 63.541 58.3693 63.541 58.7457C63.541 59.0413 63.6486 59.29 63.8636 59.4916C64.0786 59.6932 64.3407 59.8545 64.6498 59.9754C64.959 60.0829 65.4159 60.2241 66.0207 60.3988C66.8271 60.6138 67.4857 60.8356 67.9964 61.0641C68.5206 61.2791 68.9708 61.6017 69.3471 62.0317C69.7234 62.4618 69.9183 63.033 69.9318 63.7453C69.9318 64.377 69.757 64.9415 69.4076 65.4388C69.0582 65.9361 68.5609 66.3258 67.9158 66.6081C67.2841 66.8903 66.5382 67.0314 65.678 67.0314Z" fill="#797979"/>
<path d="M122.366 7.896V1.20864H134.86V39H127.395V7.896H122.366ZM141.2 31.6387V25.9363L158.152 1.6752H166.602V25.3142H171.163V31.6387H166.602V39H159.344V31.6387H141.2ZM159.811 9.4512L149.183 25.3142H159.811V9.4512Z" fill="#F9A502"/>
<path d="M125.602 56.0104C126.449 56.0104 127.201 56.1918 127.86 56.5547C128.532 56.9176 129.056 57.4552 129.432 58.1675C129.822 58.8798 130.017 59.74 130.017 60.748V67.3H127.739V61.0907C127.739 60.0961 127.49 59.3368 126.993 58.8126C126.496 58.275 125.817 58.0062 124.957 58.0062C124.097 58.0062 123.411 58.275 122.901 58.8126C122.403 59.3368 122.155 60.0961 122.155 61.0907V67.3H119.856V52.3816H122.155V57.4821C122.544 57.0117 123.035 56.6488 123.626 56.3934C124.231 56.1381 124.89 56.0104 125.602 56.0104ZM137.565 67.4814C136.517 67.4814 135.569 67.2462 134.723 66.7758C133.876 66.292 133.211 65.62 132.727 64.7598C132.243 63.8862 132.001 62.8782 132.001 61.7358C132.001 60.6069 132.25 59.6056 132.747 58.732C133.244 57.8584 133.923 57.1864 134.783 56.716C135.643 56.2456 136.604 56.0104 137.666 56.0104C138.728 56.0104 139.689 56.2456 140.549 56.716C141.409 57.1864 142.088 57.8584 142.585 58.732C143.082 59.6056 143.331 60.6069 143.331 61.7358C143.331 62.8648 143.076 63.8661 142.565 64.7397C142.054 65.6133 141.355 66.292 140.468 66.7758C139.595 67.2462 138.627 67.4814 137.565 67.4814ZM137.565 65.4856C138.157 65.4856 138.708 65.3445 139.218 65.0622C139.743 64.78 140.166 64.3566 140.488 63.7921C140.811 63.2277 140.972 62.5422 140.972 61.7358C140.972 60.9294 140.818 60.2507 140.509 59.6997C140.2 59.1352 139.79 58.7118 139.279 58.4296C138.768 58.1473 138.217 58.0062 137.626 58.0062C137.034 58.0062 136.483 58.1473 135.973 58.4296C135.475 58.7118 135.079 59.1352 134.783 59.6997C134.488 60.2507 134.34 60.9294 134.34 61.7358C134.34 62.932 134.642 63.8593 135.247 64.5179C135.865 65.163 136.638 65.4856 137.565 65.4856ZM147.7 57.8046C148.036 57.2401 148.479 56.8033 149.03 56.4942C149.595 56.1717 150.26 56.0104 151.026 56.0104V58.3893H150.441C149.541 58.3893 148.855 58.6177 148.385 59.0747C147.928 59.5317 147.7 60.3246 147.7 61.4536V67.3H145.401V56.1918H147.7V57.8046ZM152.171 61.6955C152.171 60.58 152.399 59.5921 152.856 58.732C153.327 57.8718 153.958 57.2065 154.751 56.7361C155.558 56.2523 156.445 56.0104 157.412 56.0104C158.286 56.0104 159.045 56.1851 159.691 56.5345C160.349 56.8705 160.873 57.2939 161.263 57.8046V56.1918H163.581V67.3H161.263V65.6469C160.873 66.171 160.342 66.6078 159.67 66.9573C158.998 67.3067 158.232 67.4814 157.372 67.4814C156.418 67.4814 155.544 67.2395 154.751 66.7557C153.958 66.2584 153.327 65.5729 152.856 64.6993C152.399 63.8123 152.171 62.811 152.171 61.6955ZM161.263 61.7358C161.263 60.9697 161.102 60.3045 160.779 59.74C160.47 59.1755 160.06 58.7454 159.549 58.4497C159.039 58.1541 158.488 58.0062 157.896 58.0062C157.305 58.0062 156.754 58.1541 156.243 58.4497C155.732 58.732 155.316 59.1553 154.993 59.7198C154.684 60.2709 154.53 60.9294 154.53 61.6955C154.53 62.4616 154.684 63.1336 154.993 63.7115C155.316 64.2894 155.732 64.7329 156.243 65.0421C156.767 65.3377 157.318 65.4856 157.896 65.4856C158.488 65.4856 159.039 65.3377 159.549 65.0421C160.06 64.7464 160.47 64.3163 160.779 63.7518C161.102 63.1739 161.263 62.5019 161.263 61.7358ZM170.43 67.4814C169.557 67.4814 168.771 67.3269 168.072 67.0177C167.386 66.6952 166.842 66.2651 166.439 65.7275C166.036 65.1765 165.821 64.5649 165.794 63.8929H168.173C168.213 64.3633 168.435 64.7598 168.838 65.0824C169.254 65.3915 169.772 65.5461 170.39 65.5461C171.035 65.5461 171.533 65.4251 171.882 65.1832C172.245 64.9278 172.426 64.6053 172.426 64.2155C172.426 63.7989 172.225 63.4897 171.822 63.2881C171.432 63.0865 170.807 62.8648 169.947 62.6229C169.113 62.3944 168.435 62.1726 167.91 61.9576C167.386 61.7425 166.929 61.4133 166.54 60.9697C166.163 60.5262 165.975 59.9416 165.975 59.2158C165.975 58.6245 166.15 58.0869 166.499 57.603C166.849 57.1057 167.346 56.716 167.991 56.4337C168.65 56.1515 169.402 56.0104 170.249 56.0104C171.512 56.0104 172.527 56.3329 173.293 56.9781C174.073 57.6097 174.489 58.4766 174.543 59.5787H172.245C172.205 59.0814 172.003 58.6849 171.64 58.3893C171.277 58.0936 170.787 57.9457 170.168 57.9457C169.564 57.9457 169.1 58.06 168.777 58.2885C168.455 58.5169 168.294 58.8193 168.294 59.1957C168.294 59.4913 168.401 59.74 168.616 59.9416C168.831 60.1432 169.093 60.3045 169.402 60.4254C169.711 60.5329 170.168 60.6741 170.773 60.8488C171.58 61.0638 172.238 61.2856 172.749 61.5141C173.273 61.7291 173.723 62.0517 174.1 62.4817C174.476 62.9118 174.671 63.483 174.684 64.1953C174.684 64.827 174.51 65.3915 174.16 65.8888C173.811 66.3861 173.313 66.7758 172.668 67.0581C172.037 67.3403 171.291 67.4814 170.43 67.4814Z" fill="#797979"/>
<path d="M243.149 7.93129H226.353V16.7959C227.079 15.8974 228.116 15.1716 229.463 14.6187C230.811 14.0311 232.245 13.7374 233.766 13.7374C236.531 13.7374 238.795 14.3422 240.557 15.5518C242.32 16.7614 243.598 18.3166 244.393 20.2174C245.188 22.0836 245.586 24.0881 245.586 26.2308C245.586 30.2052 244.445 33.402 242.164 35.8212C239.918 38.2404 236.704 39.45 232.522 39.45C228.582 39.45 225.437 38.4651 223.087 36.4951C220.737 34.5252 219.406 31.9505 219.095 28.771H226.146C226.457 30.1534 227.148 31.2593 228.219 32.0887C229.325 32.9182 230.725 33.3329 232.418 33.3329C234.457 33.3329 235.995 32.6935 237.032 31.4148C238.069 30.1361 238.587 28.4427 238.587 26.3345C238.587 24.1918 238.052 22.5675 236.98 21.4615C235.943 20.3211 234.405 19.7508 232.366 19.7508C230.915 19.7508 229.705 20.1137 228.738 20.8395C227.77 21.5652 227.079 22.5329 226.664 23.7425H219.717V1.55497H243.149V7.93129ZM270.187 11.0935C269.841 9.64201 269.236 8.55337 268.372 7.82761C267.543 7.10185 266.333 6.73897 264.743 6.73897C262.359 6.73897 260.596 7.70665 259.456 9.64201C258.35 11.5428 257.779 14.6532 257.745 18.9732C258.574 17.5908 259.784 16.5195 261.374 15.7591C262.963 14.9643 264.691 14.5668 266.558 14.5668C268.804 14.5668 270.791 15.0507 272.519 16.0183C274.247 16.986 275.595 18.403 276.563 20.2692C277.531 22.1009 278.014 24.3127 278.014 26.9047C278.014 29.3585 277.513 31.5531 276.511 33.4884C275.543 35.3892 274.109 36.8753 272.208 37.9467C270.307 39.018 268.044 39.5537 265.417 39.5537C261.823 39.5537 258.989 38.7588 256.915 37.1691C254.876 35.5793 253.442 33.3675 252.613 30.5335C251.818 27.6651 251.42 24.1399 251.42 19.9582C251.42 13.6337 252.509 8.86441 254.686 5.65033C256.864 2.40169 260.302 0.777369 265.003 0.777369C268.631 0.777369 271.448 1.76233 273.452 3.73225C275.457 5.70217 276.615 8.15593 276.926 11.0935H270.187ZM264.899 20.5284C263.067 20.5284 261.529 21.0641 260.285 22.1355C259.041 23.2068 258.419 24.762 258.419 26.8011C258.419 28.8401 258.989 30.4471 260.13 31.6222C261.305 32.7972 262.946 33.3847 265.054 33.3847C266.921 33.3847 268.389 32.8145 269.461 31.674C270.567 30.5335 271.12 28.9956 271.12 27.0603C271.12 25.0558 270.584 23.466 269.513 22.291C268.476 21.1159 266.938 20.5284 264.899 20.5284Z" fill="#F9A502"/>
<path d="M227.394 67.85V56.8537H229.449V58.6434H229.585C229.814 58.0373 230.188 57.5648 230.709 57.2259C231.229 56.8823 231.852 56.7105 232.577 56.7105C233.312 56.7105 233.928 56.8823 234.424 57.2259C234.925 57.5696 235.295 58.0421 235.534 58.6434H235.648C235.911 58.0564 236.328 57.5887 236.901 57.2403C237.474 56.8871 238.156 56.7105 238.949 56.7105C239.946 56.7105 240.76 57.0231 241.39 57.6483C242.025 58.2736 242.342 59.2162 242.342 60.4762V67.85H240.202V60.6766C240.202 59.9321 239.999 59.3928 239.593 59.0587C239.187 58.7246 238.703 58.5575 238.14 58.5575C237.443 58.5575 236.901 58.7723 236.515 59.2019C236.128 59.6266 235.935 60.1731 235.935 60.8413V67.85H233.801V60.5406C233.801 59.944 233.615 59.4644 233.243 59.1016C232.871 58.7389 232.386 58.5575 231.79 58.5575C231.384 58.5575 231.009 58.6649 230.666 58.8797C230.327 59.0897 230.052 59.3832 229.842 59.7603C229.637 60.1373 229.535 60.574 229.535 61.0704V67.85H227.394ZM245.01 67.85V56.8537H247.15V67.85H245.01ZM246.091 55.157C245.718 55.157 245.399 55.0329 245.131 54.7847C244.869 54.5317 244.737 54.2311 244.737 53.8826C244.737 53.5295 244.869 53.2288 245.131 52.9806C245.399 52.7276 245.718 52.6012 246.091 52.6012C246.463 52.6012 246.78 52.7276 247.043 52.9806C247.31 53.2288 247.444 53.5295 247.444 53.8826C247.444 54.2311 247.31 54.5317 247.043 54.7847C246.78 55.0329 246.463 55.157 246.091 55.157ZM251.969 61.3209V67.85H249.828V56.8537H251.883V58.6434H252.019C252.272 58.0612 252.668 57.5934 253.207 57.2403C253.751 56.8871 254.436 56.7105 255.262 56.7105C256.011 56.7105 256.668 56.868 257.231 57.183C257.794 57.4932 258.231 57.9562 258.541 58.5719C258.851 59.1875 259.006 59.9488 259.006 60.8556V67.85H256.866V61.1133C256.866 60.3163 256.658 59.6934 256.243 59.2448C255.828 58.7914 255.257 58.5647 254.532 58.5647C254.035 58.5647 253.594 58.6721 253.207 58.8869C252.826 59.1016 252.522 59.4166 252.298 59.8319C252.079 60.2423 251.969 60.7387 251.969 61.3209ZM269.916 59.5383L267.975 59.882C267.894 59.6338 267.765 59.3975 267.589 59.1732C267.417 58.9489 267.183 58.7651 266.887 58.622C266.591 58.4788 266.221 58.4072 265.778 58.4072C265.171 58.4072 264.666 58.5432 264.26 58.8153C263.854 59.0825 263.651 59.4286 263.651 59.8533C263.651 60.2208 263.787 60.5167 264.059 60.7411C264.331 60.9654 264.771 61.1491 265.377 61.2923L267.123 61.6932C268.135 61.9271 268.889 62.2874 269.386 62.7742C269.882 63.2611 270.13 63.8934 270.13 64.6714C270.13 65.33 269.939 65.9171 269.558 66.4325C269.181 66.9432 268.653 67.3441 267.975 67.6353C267.302 67.9264 266.522 68.072 265.634 68.072C264.403 68.072 263.398 67.8095 262.62 67.2845C261.842 66.7547 261.365 66.003 261.189 65.0294L263.258 64.7144C263.386 65.2537 263.651 65.6617 264.052 65.9386C264.453 66.2106 264.976 66.3466 265.62 66.3466C266.322 66.3466 266.882 66.2011 267.302 65.9099C267.722 65.614 267.932 65.2537 267.932 64.8289C267.932 64.4853 267.804 64.1965 267.546 63.9627C267.293 63.7288 266.904 63.5522 266.379 63.4329L264.518 63.0248C263.491 62.7909 262.733 62.4187 262.241 61.908C261.754 61.3973 261.511 60.7506 261.511 59.9679C261.511 59.3188 261.692 58.7508 262.055 58.264C262.418 57.7772 262.919 57.3978 263.558 57.1257C264.198 56.8489 264.93 56.7105 265.756 56.7105C266.944 56.7105 267.88 56.9682 268.562 57.4837C269.245 57.9944 269.696 58.6792 269.916 59.5383Z" fill="#797979"/>
</svg>
