<svg width="79" height="78" viewBox="0 0 79 78" fill="none" xmlns="http://www.w3.org/2000/svg">
<path d="M64.6233 0.736313C62.9422 1.64744 60.5956 4.0243 60.5956 4.85619C60.5956 5.21272 61.0159 5.80693 61.5762 6.24269C62.1016 6.67845 62.9772 8.06494 63.5726 9.3326C65.8142 14.324 64.9035 23.3956 61.4361 30.4074C59.8951 33.4973 54.8516 40.1921 51.9096 43.0839C49.7031 45.2627 44.9047 49.1053 44.3794 49.1053C44.2393 49.1053 43.5388 49.5014 42.8033 50.0164C40.877 51.4029 33.697 54.4136 28.7236 55.9585C23.8552 57.4639 13.1378 60.4349 11.1765 60.7915C10.476 60.9103 8.37455 61.5441 6.48325 62.2176C3.64629 63.2079 2.80571 63.7229 1.86006 64.8717C-0.486557 67.7636 -0.486557 71.0119 1.86006 73.5868C2.84074 74.6564 3.85644 75.1714 7.569 76.3202L12.0871 77.7463L21.5436 77.9048C32.261 78.1425 35.168 77.8256 42.4531 75.8052C47.2514 74.498 51.139 72.9134 54.4663 70.9723C55.447 70.4177 56.7079 69.665 57.2683 69.3085C61.7514 66.7336 68.2659 60.2369 71.348 55.2455C73.5895 51.6406 75.5859 47.0453 76.7767 42.8066C77.6173 39.7959 77.8975 38.0529 78.0026 34.4084C78.3878 24.5841 76.1463 18.4439 71.8383 17.5724C69.7369 17.1762 69.1415 16.4632 67.9857 13.0563C65.9192 6.95575 65.4289 3.19239 66.3745 0.657082C66.6898 -0.214431 66.3745 -0.174814 64.6233 0.736313Z" fill="#F9A502"/>
</svg>
