<svg width="33" height="33" viewBox="0 0 33 33" fill="none" xmlns="http://www.w3.org/2000/svg">
<path d="M6.16287 6.04875C6.16287 4.97926 6.58772 3.95358 7.34396 3.19734C8.1002 2.4411 9.12589 2.01625 10.1954 2.01625C11.2649 2.01625 12.2905 2.4411 13.0468 3.19734C13.803 3.95358 14.2279 4.97926 14.2279 6.04875C14.2279 7.11823 13.803 8.14392 13.0468 8.90016C12.2905 9.6564 11.2649 10.0812 10.1954 10.0812C9.12589 10.0812 8.1002 9.6564 7.34396 8.90016C6.58772 8.14392 6.16287 7.11823 6.16287 6.04875ZM10.1954 4.0325C9.66063 4.0325 9.14779 4.24493 8.76967 4.62305C8.39155 5.00117 8.17912 5.51401 8.17912 6.04875C8.17912 6.58349 8.39155 7.09633 8.76967 7.47445C9.14779 7.85257 9.66063 8.065 10.1954 8.065C10.7301 8.065 11.243 7.85257 11.6211 7.47445C11.9992 7.09633 12.2116 6.58349 12.2116 6.04875C12.2116 5.51401 11.9992 5.00117 11.6211 4.62305C11.243 4.24493 10.7301 4.0325 10.1954 4.0325ZM19.831 9.24249C19.4086 8.92028 19.054 8.51777 18.7877 8.0581C18.5213 7.59843 18.3484 7.09065 18.2788 6.56394C18.2093 6.03723 18.2446 5.50198 18.3825 4.98893C18.5205 4.47588 18.7585 3.99516 19.0829 3.57438C19.4072 3.15361 19.8115 2.80107 20.2725 2.53703C20.7336 2.27299 21.2422 2.10265 21.7693 2.03581C22.2963 1.96896 22.8314 2.00692 23.3437 2.1475C23.8561 2.28809 24.3356 2.52853 24.7547 2.85501C25.5799 3.51514 26.1131 4.47284 26.2394 5.52204C26.3657 6.57125 26.075 7.62811 25.43 8.46522C24.785 9.30232 23.8372 9.85278 22.7905 9.99814C21.7437 10.1435 20.6797 9.87216 19.831 9.24249ZM22.2929 4.0325C21.7581 4.0325 21.2453 4.24493 20.8672 4.62305C20.489 5.00117 20.2766 5.51401 20.2766 6.04875C20.2766 6.58349 20.489 7.09633 20.8672 7.47445C21.2453 7.85257 21.7581 8.065 22.2929 8.065C22.8276 8.065 23.3405 7.85257 23.7186 7.47445C24.0967 7.09633 24.3091 6.58349 24.3091 6.04875C24.3091 5.51401 24.0967 5.00117 23.7186 4.62305C23.3405 4.24493 22.8276 4.0325 22.2929 4.0325ZM5.15475 12.0975H10.5381C10.3163 12.7286 10.1954 13.4081 10.1954 14.1137H5.15475C4.88737 14.1137 4.63095 14.22 4.44189 14.409C4.25283 14.5981 4.14662 14.8545 4.14662 15.1219C4.14662 16.7692 4.8019 17.991 5.83624 18.8217C6.31207 19.2048 6.88267 19.5133 7.52787 19.7391C7.05407 20.2427 6.68895 20.8384 6.45523 21.4892C5.77844 21.2173 5.14476 20.8485 4.57407 20.3944C3.05785 19.1745 2.13037 17.372 2.13037 15.1219C2.13037 14.3198 2.44901 13.5505 3.01619 12.9833C3.58337 12.4161 4.35263 12.0975 5.15475 12.0975ZM12.752 12.0975C12.2172 13.0242 12.0725 14.1254 12.3497 15.1588C12.6268 16.1922 13.3032 17.0732 14.2299 17.6079C15.1566 18.1427 16.2578 18.2874 17.2912 18.0102C18.3246 17.733 19.2056 17.0567 19.7403 16.13C20.275 15.2033 20.4197 14.1021 20.1426 13.0687C19.8654 12.0353 19.1891 11.1543 18.2624 10.6196C17.3357 10.0848 16.2345 9.94014 15.2011 10.2173C14.1677 10.4945 13.2867 11.1708 12.752 12.0975ZM15.7925 12.1479C16.0879 12.0812 16.3945 12.0816 16.6897 12.1493C16.985 12.2169 17.2612 12.35 17.4981 12.5387C17.735 12.7274 17.9265 12.9669 18.0584 13.2395C18.1903 13.5121 18.2594 13.8109 18.2604 14.1137C18.2602 14.4931 18.153 14.8647 17.9511 15.1859C17.7493 15.5071 17.4609 15.7648 17.1191 15.9294C16.7773 16.0941 16.396 16.1589 16.019 16.1166C15.642 16.0742 15.2846 15.9263 14.9879 15.69C14.6912 15.4536 14.4671 15.1383 14.3415 14.7804C14.216 14.4224 14.1939 14.0362 14.278 13.6663C14.362 13.2964 14.5487 12.9576 14.8166 12.689C15.0845 12.4204 15.4228 12.2329 15.7925 12.1479ZM26.652 18.8217C26.1762 19.2048 25.6056 19.5133 24.9604 19.7391C25.4334 20.2429 25.7979 20.8386 26.031 21.4892C26.7165 21.2089 27.3516 20.844 27.9142 20.3944C29.4304 19.1745 30.3579 17.372 30.3579 15.1219C30.3579 14.3198 30.0392 13.5505 29.4721 12.9833C28.9049 12.4161 28.1356 12.0975 27.3335 12.0975H21.9501C22.1719 12.7286 22.2929 13.4081 22.2929 14.1137H27.3335C27.6009 14.1137 27.8573 14.22 28.0463 14.409C28.2354 14.5981 28.3416 14.8545 28.3416 15.1219C28.3416 16.7692 27.6863 17.991 26.652 18.8217ZM21.2847 20.1625C22.0869 20.1625 22.8561 20.4811 23.4233 21.0483C23.9905 21.6155 24.3091 22.3848 24.3091 23.1869C24.3091 25.437 23.3837 27.2395 21.8654 28.4594C20.3714 29.659 18.3672 30.2437 16.2441 30.2437C14.121 30.2437 12.1169 29.659 10.6228 28.4594C9.1066 27.2395 8.17912 25.437 8.17912 23.1869C8.17806 22.7894 8.25556 22.3957 8.40717 22.0282C8.55878 21.6608 8.78152 21.327 9.06257 21.0459C9.34362 20.7649 9.67745 20.5422 10.0449 20.3905C10.4123 20.2389 10.806 20.1614 11.2035 20.1625H21.2847ZM21.2847 22.1787H11.2035C10.9361 22.1787 10.6797 22.285 10.4906 22.474C10.3016 22.6631 10.1954 22.9195 10.1954 23.1869C10.1954 24.8341 10.8507 26.056 11.885 26.8867C12.9455 27.7375 14.4698 28.2275 16.2441 28.2275C18.0184 28.2275 19.5427 27.7375 20.6033 26.8867C21.6376 26.056 22.2929 24.8341 22.2929 23.1869C22.2929 22.9195 22.1867 22.6631 21.9976 22.474C21.8085 22.285 21.5521 22.1787 21.2847 22.1787Z" fill="#797979"/>
</svg>
