<svg width="100" height="100" viewBox="0 0 100 100" fill="none" xmlns="http://www.w3.org/2000/svg">
<rect width="100" height="100" rx="50" fill="#90A5B4"/>
<rect width="100" height="100" rx="50" fill="#90A5B4"/>
<path d="M43.7732 73L33.5812 55.2914H28.0393V73H20.7775V28.7285H36.0655C39.4628 28.7285 42.3293 29.323 44.665 30.5121C47.0431 31.7012 48.8055 33.2937 49.9521 35.2896C51.1412 37.2855 51.7357 39.515 51.7357 41.9781C51.7357 44.8658 50.8864 47.4988 49.1877 49.8769C47.5315 52.2126 44.9623 53.8051 41.48 54.6544L52.4364 73H43.7732ZM28.0393 49.4947H36.0655C38.7834 49.4947 40.8218 48.8152 42.1807 47.4563C43.5821 46.0974 44.2828 44.2713 44.2828 41.9781C44.2828 39.6849 43.6033 37.9013 42.2444 36.6273C40.8855 35.3108 38.8258 34.6526 36.0655 34.6526H28.0393V49.4947ZM67.6502 67.1396H82.6197V73H60.3884V28.7285H67.6502V67.1396Z" fill="#FAFAFA"/>
</svg>
