<svg width="311" height="15" viewBox="0 0 311 15" fill="none" xmlns="http://www.w3.org/2000/svg">
<path d="M11.9204 0.430969C11.6098 0.599296 11.1763 1.03841 11.1763 1.1921C11.1763 1.25797 11.2539 1.36774 11.3574 1.44825C11.4545 1.52875 11.6163 1.7849 11.7263 2.01909C12.1404 2.94123 11.9721 4.61718 11.3316 5.91256C11.0469 6.48341 10.1151 7.72024 9.57157 8.25449C9.16392 8.65701 8.27746 9.36691 8.1804 9.36691C8.15452 9.36691 8.0251 9.4401 7.88922 9.53524C7.53334 9.79139 6.20688 10.3476 5.28806 10.633C4.38865 10.9111 2.40866 11.46 2.04631 11.5259C1.9169 11.5478 1.52867 11.6649 1.17926 11.7894C0.655144 11.9723 0.49985 12.0675 0.325145 12.2797C-0.108382 12.8139 -0.108382 13.4141 0.325145 13.8898C0.506321 14.0874 0.693967 14.1825 1.37985 14.3948L2.21455 14.6582L3.9616 14.6875C5.94159 14.7314 6.47864 14.6729 7.82452 14.2996C8.71098 14.0581 9.42921 13.7654 10.0439 13.4068C10.2251 13.3043 10.458 13.1652 10.5616 13.0994C11.3898 12.6237 12.5933 11.4234 13.1627 10.5013C13.5768 9.8353 13.9457 8.98635 14.1657 8.20327C14.321 7.64706 14.3727 7.32504 14.3921 6.65173C14.4633 4.83673 14.0492 3.70236 13.2533 3.54135C12.8651 3.46817 12.7551 3.33643 12.5416 2.70704C12.1598 1.57998 12.0692 0.884719 12.2439 0.416332C12.3021 0.255324 12.2439 0.262643 11.9204 0.430969Z" fill="#90A5B4"/>
<path d="M22.1056 4.39091V10.5H21.1809V5.31562H21.1451L19.6834 6.27017V5.38722L21.2077 4.39091H22.1056Z" fill="#90A5B4"/>
<path d="M292.483 7.50186C292.483 7.92942 292.41 8.30726 292.263 8.63539C292.116 8.96152 291.913 9.21706 291.654 9.40201C291.396 9.58695 291.101 9.67843 290.771 9.67644C290.513 9.67843 290.275 9.62573 290.058 9.51834C289.84 9.40897 289.658 9.26081 289.512 9.07388C289.365 8.88695 289.272 8.67814 289.232 8.44746L289.196 8.44746C289.123 8.75172 288.96 8.99533 288.707 9.17828C288.454 9.36124 288.164 9.45172 287.836 9.44973C287.524 9.45172 287.245 9.36919 287.001 9.20215C286.754 9.03311 286.56 8.80144 286.419 8.50712C286.278 8.2128 286.207 7.87772 286.207 7.50186C286.207 7.12999 286.279 6.79789 286.422 6.50556C286.563 6.21124 286.757 5.97956 287.004 5.81053C287.248 5.64149 287.526 5.55598 287.836 5.55399C288.164 5.55598 288.454 5.64945 288.707 5.83439C288.96 6.01934 289.123 6.25996 289.196 6.55627L289.232 6.55627C289.272 6.32757 289.365 6.12175 289.512 5.9388C289.658 5.75385 289.84 5.60669 290.058 5.49732C290.275 5.38596 290.513 5.32928 290.771 5.32729C291.101 5.32928 291.396 5.42274 291.654 5.60769C291.913 5.79263 292.116 6.04917 292.263 6.37729C292.41 6.70343 292.483 7.07828 292.483 7.50186ZM291.729 7.50186C291.729 7.24931 291.687 7.03056 291.603 6.84561C291.518 6.66067 291.4 6.51749 291.248 6.41607C291.095 6.31465 290.916 6.26294 290.712 6.26095C290.499 6.26294 290.311 6.31863 290.148 6.428C289.985 6.53539 289.856 6.68155 289.763 6.86649C289.67 7.05144 289.623 7.26323 289.623 7.50186C289.623 7.74249 289.67 7.95627 289.763 8.1432C289.856 8.33013 289.985 8.47729 290.148 8.58468C290.311 8.69206 290.499 8.74476 290.712 8.74277C290.916 8.74476 291.095 8.69604 291.248 8.59661C291.4 8.49519 291.518 8.35101 291.603 8.16408C291.687 7.97715 291.729 7.75641 291.729 7.50186ZM288.886 7.50186C288.886 7.29902 288.845 7.11905 288.764 6.96195C288.682 6.80485 288.569 6.68155 288.424 6.59206C288.278 6.50059 288.108 6.45385 287.914 6.45186C287.723 6.45385 287.556 6.49959 287.412 6.58908C287.269 6.67658 287.159 6.79888 287.081 6.95598C287.002 7.11309 286.962 7.29505 286.962 7.50186C286.962 7.71266 287.002 7.8976 287.081 8.05669C287.159 8.2138 287.269 8.3361 287.412 8.4236C287.556 8.5111 287.723 8.55385 287.914 8.55186C288.108 8.55385 288.278 8.5101 288.424 8.42061C288.569 8.33113 288.682 8.20783 288.764 8.05073C288.845 7.89164 288.886 7.70868 288.886 7.50186Z" fill="#90A5B4"/>
<path d="M309.77 6.36303V6.27303C309.484 4.89057 308.732 3.6482 307.64 2.75372C306.548 1.85924 305.181 1.36689 303.77 1.35903C302.207 1.35517 300.704 1.95242 299.57 3.02703L299.444 3.14103C299.441 3.15087 299.441 3.16119 299.444 3.17103C298.6 4.01614 298.021 5.08894 297.778 6.25802C297.535 7.4271 297.639 8.64168 298.075 9.75296C298.512 10.8642 299.264 11.824 300.238 12.5146C301.212 13.2052 302.366 13.5966 303.56 13.641H303.8C305.43 13.6394 306.994 12.991 308.147 11.838C309.3 10.685 309.948 9.12162 309.95 7.49103C309.926 7.11018 309.865 6.73248 309.77 6.36303ZM303.806 12.759C303.585 12.0923 303.462 11.3971 303.44 10.695C303.506 9.78303 302.714 9.69903 302.372 9.66303C301.856 9.60903 301.514 9.57303 301.514 8.53503C301.531 7.99623 301.585 7.45863 301.676 6.92703C301.874 5.54703 302.096 4.01103 300.644 3.26103C301.54 2.60885 302.62 2.25799 303.728 2.25903C304.132 2.25783 304.535 2.30415 304.928 2.39703C304.955 2.69931 304.918 3.00392 304.82 3.29103C304.124 3.48903 304.112 4.40103 304.1 5.46303C304.126 6.05283 304.065 6.64323 303.92 7.21503C303.81 7.46796 303.796 7.75198 303.88 8.01452C303.964 8.27705 304.14 8.50033 304.376 8.64303C304.703 8.83503 305.077 8.93223 305.456 8.92503C305.751 8.93129 306.045 8.87883 306.32 8.77068C306.595 8.66254 306.846 8.50086 307.058 8.29503C307.414 7.93848 307.649 7.47874 307.73 6.98103C307.748 6.91623 307.76 6.85023 307.766 6.78303C307.823 6.77013 307.882 6.77013 307.94 6.78303C308.108 6.78303 308.33 6.78303 308.54 6.81903H308.912C309.012 7.55405 308.955 8.30201 308.744 9.01328C308.533 9.72456 308.174 10.3829 307.689 10.9446C307.205 11.5063 306.606 11.9586 305.934 12.2714C305.261 12.5842 304.529 12.7504 303.788 12.759H303.806Z" fill="#90A5B4"/>
</svg>
