<svg width="16" height="21" viewBox="0 0 16 21" fill="none" xmlns="http://www.w3.org/2000/svg">
<path d="M0.516402 20.5C0.773694 16.591 4.02588 13.5 8 13.5C11.9741 13.5 15.2263 16.591 15.4836 20.5H14.4811C14.2257 17.1438 11.4216 14.5 8 14.5C4.57838 14.5 1.77426 17.1438 1.51894 20.5H0.516402ZM8 11.5C4.96114 11.5 2.5 9.03886 2.5 6C2.5 2.96114 4.96114 0.5 8 0.5C11.0389 0.5 13.5 2.96114 13.5 6C13.5 9.03886 11.0389 11.5 8 11.5ZM8 10.5C10.4861 10.5 12.5 8.48614 12.5 6C12.5 3.51386 10.4861 1.5 8 1.5C5.51386 1.5 3.5 3.51386 3.5 6C3.5 8.48614 5.51386 10.5 8 10.5Z" fill="black" stroke="#FFB340"/>
</svg>
