<svg width="52" height="52" viewBox="0 0 52 52" fill="none" xmlns="http://www.w3.org/2000/svg">
<circle cx="26" cy="26" r="26" fill="#F9A502"/>
<path fill-rule="evenodd" clip-rule="evenodd" d="M22.3275 28.7571C22.3275 28.7298 22.3264 28.7026 22.3243 28.6755C22.3264 28.646 22.3275 28.6163 22.3275 28.5862C22.3275 27.9102 22.8756 27.3621 23.5516 27.3621H27.8361C29.5452 27.3621 31.0206 28.3629 31.7083 29.8103H29.127L29.1117 29.8103H27.8387C27.8379 29.8103 27.837 29.8103 27.8361 29.8103H23.3807C22.799 29.8103 22.3275 29.3388 22.3275 28.7571ZM23.9056 35.931L22.9395 35.931C22.9395 35.931 22.9394 35.931 22.9393 35.931C22.7611 35.931 22.5841 35.9259 22.4085 35.9159C17.585 35.6409 13.7583 31.6423 13.7583 26.75L13.7583 20.6293C13.7583 20.6174 13.7584 20.6055 13.7585 20.5936V17.5689H13.7589L13.7589 12.0603C13.7589 10.3702 15.129 9 16.8192 9C18.5094 9 19.8795 10.3702 19.8795 12.0603L19.8795 15.1207C19.8795 18.5011 22.6199 21.2414 26.0002 21.2414H29.1123C29.5322 21.2414 29.9478 21.3039 30.3459 21.4252C34.4543 22.2319 37.6414 25.6076 38.1655 29.8103H38.2407V30.9289C38.2411 30.9641 38.2413 30.9993 38.2413 31.0345V32.8707C38.2413 32.8904 38.2411 32.9101 38.2407 32.9297V41.4397C38.2407 43.1298 36.8705 44.5 35.1804 44.5C33.4902 44.5 32.12 43.1298 32.12 41.4397V40.2155C32.12 37.8493 30.2018 35.931 27.8355 35.931H23.9217L23.9056 35.931Z" fill="white"/>
</svg>
