<svg width="100" height="145" viewBox="0 0 100 145" fill="none" xmlns="http://www.w3.org/2000/svg">
<path fill-rule="evenodd" clip-rule="evenodd" d="M35.0002 80C35.0002 77.2386 37.2388 75 40.0002 75H50.0001H57.5002C64.4812 75 70.5075 79.0876 73.3161 85H62.7113H60H57.5109C57.5073 85 57.5037 85 57.5001 85H39.302C36.9261 85 35.0001 83.074 35.0001 80.6981C35.0001 80.5867 34.9958 80.4754 34.9871 80.3645C34.9958 80.2441 35.0002 80.1226 35.0002 80ZM0 47.5V35H8.40326e-05L8.50161e-05 12.5C8.53179e-05 5.59644 5.59653 0 12.5001 0C19.4036 0 25.0001 5.59644 25.0001 12.5L25.0001 25C25.0001 38.8071 36.193 50 50.0001 50L60.0002 50L62.7114 50C64.4255 50 66.122 50.2548 67.747 50.7496C84.5297 54.0431 97.5499 67.8322 99.6907 85H100V89.8679C100 89.9119 100 89.9559 100 90V97.5C100 97.5246 100 97.5493 100 97.5739V132.5C100 139.404 94.4036 145 87.5 145C80.5964 145 75 139.404 75 132.5V127.5C75 117.835 67.165 110 57.5 110H50H41.5139H37.5C16.7893 110 0 93.2107 0 72.5V47.5Z" fill="white"/>
</svg>
